# xmcd
#
# Track frame offsets:
# 150
# 18547
# 37835
# 56089
# 75395
# 97132
# 111970
# 130507
# 148865
# 166637
# 184915
# 198890
#
# Disc length: 2910 seconds
#
#
# Revision: 1
# Processed by: cddbd v1.5.1PL2 Copyright (c) Steve Scherf et al.
# Submitted via: FreeRIP 2.945 
#
DISCID=990b5c0c
DTITLE=Chistian and Ralf - Chistian and Ralf
DYEAR=1995
DGENRE=Sertaneja
TTITLE0=O que Tiver Vir, Virá
TTITLE1=Você não me Encinou a Te esquecer
TTITLE2=O Amor Não é Paixão
TTITLE3=Mande a Solidão pra Outro Lugar
TTITLE4=Olhos de Luar
TTITLE5=Meu Coração está de Olho Nas Ruas
TTITLE6=Sou Eu
TTITLE7=Sonho de Criança
TTITLE8=Meu Corpo te Adora
TTITLE9=Coração Caçador
TTITLE10=Diz pra Ela
TTITLE11=Quem é Você
EXTD=YEAR: 1995
EXTT0=
EXTT1=
EXTT2=
EXTT3=
EXTT4=
EXTT5=
EXTT6=
EXTT7=
EXTT8=
EXTT9=
EXTT10=
EXTT11=
PLAYORDER=
